<mxfile host="app.diagrams.net" agent="Mozilla/5.0 (Windows NT 10.0; Win64; x64) AppleWebKit/537.36 (KHTML, like Gecko) Chrome/128.0.0.0 Safari/537.36" version="24.7.12">
  <diagram id="R2lEEEUBdFMjLlhIrx00" name="Page-1">
    <mxGraphModel dx="1290" dy="565" grid="1" gridSize="10" guides="1" tooltips="1" connect="1" arrows="1" fold="1" page="1" pageScale="1" pageWidth="850" pageHeight="1100" math="0" shadow="0" extFonts="Permanent Marker^https://fonts.googleapis.com/css?family=Permanent+Marker">
      <root>
        <mxCell id="0" />
        <mxCell id="1" parent="0" />
        <mxCell id="_YRfoyg79Vk_gOYzoRa0-12" value="" style="edgeStyle=orthogonalEdgeStyle;rounded=0;orthogonalLoop=1;jettySize=auto;html=1;labelBackgroundColor=none;strokeColor=#028090;fontColor=default;" edge="1" parent="1" source="_YRfoyg79Vk_gOYzoRa0-1" target="_YRfoyg79Vk_gOYzoRa0-6">
          <mxGeometry relative="1" as="geometry" />
        </mxCell>
        <mxCell id="_YRfoyg79Vk_gOYzoRa0-1" value="understand the problem (spam&lt;span style=&quot;background-color: initial;&quot;&gt;)&lt;/span&gt;" style="rounded=0;whiteSpace=wrap;html=1;fillColor=#F45B69;labelBackgroundColor=none;strokeColor=#028090;fontColor=#E4FDE1;" vertex="1" parent="1">
          <mxGeometry x="80" y="40" width="120" height="60" as="geometry" />
        </mxCell>
        <mxCell id="_YRfoyg79Vk_gOYzoRa0-10" value="" style="edgeStyle=orthogonalEdgeStyle;rounded=0;orthogonalLoop=1;jettySize=auto;html=1;labelBackgroundColor=none;strokeColor=#028090;fontColor=default;" edge="1" parent="1" source="_YRfoyg79Vk_gOYzoRa0-2" target="_YRfoyg79Vk_gOYzoRa0-6">
          <mxGeometry relative="1" as="geometry" />
        </mxCell>
        <mxCell id="_YRfoyg79Vk_gOYzoRa0-2" value="collection data about problem (UCI DATASET)" style="rounded=0;whiteSpace=wrap;html=1;labelBackgroundColor=none;fillColor=#F45B69;strokeColor=#028090;fontColor=#E4FDE1;" vertex="1" parent="1">
          <mxGeometry x="80" y="120" width="120" height="60" as="geometry" />
        </mxCell>
        <mxCell id="_YRfoyg79Vk_gOYzoRa0-29" value="" style="edgeStyle=orthogonalEdgeStyle;rounded=0;orthogonalLoop=1;jettySize=auto;html=1;labelBackgroundColor=none;strokeColor=#028090;fontColor=default;" edge="1" parent="1" source="_YRfoyg79Vk_gOYzoRa0-5" target="_YRfoyg79Vk_gOYzoRa0-15">
          <mxGeometry relative="1" as="geometry" />
        </mxCell>
        <mxCell id="_YRfoyg79Vk_gOYzoRa0-5" value="clean datasets from unnecessary columns and rows." style="rounded=0;whiteSpace=wrap;html=1;labelBackgroundColor=none;fillColor=#F45B69;strokeColor=#028090;fontColor=#E4FDE1;" vertex="1" parent="1">
          <mxGeometry x="80" y="290" width="120" height="60" as="geometry" />
        </mxCell>
        <mxCell id="_YRfoyg79Vk_gOYzoRa0-11" value="" style="edgeStyle=orthogonalEdgeStyle;rounded=0;orthogonalLoop=1;jettySize=auto;html=1;labelBackgroundColor=none;strokeColor=#028090;fontColor=default;" edge="1" parent="1" source="_YRfoyg79Vk_gOYzoRa0-6" target="_YRfoyg79Vk_gOYzoRa0-5">
          <mxGeometry relative="1" as="geometry">
            <Array as="points">
              <mxPoint x="140" y="310" />
              <mxPoint x="140" y="310" />
            </Array>
          </mxGeometry>
        </mxCell>
        <mxCell id="_YRfoyg79Vk_gOYzoRa0-13" style="edgeStyle=orthogonalEdgeStyle;rounded=0;orthogonalLoop=1;jettySize=auto;html=1;labelBackgroundColor=none;strokeColor=#028090;fontColor=default;" edge="1" parent="1" source="_YRfoyg79Vk_gOYzoRa0-6" target="_YRfoyg79Vk_gOYzoRa0-5">
          <mxGeometry relative="1" as="geometry" />
        </mxCell>
        <mxCell id="_YRfoyg79Vk_gOYzoRa0-6" value="taking data and make it able to work on (unzip, merge etc.)" style="rounded=0;whiteSpace=wrap;html=1;labelBackgroundColor=none;fillColor=#F45B69;strokeColor=#028090;fontColor=#E4FDE1;" vertex="1" parent="1">
          <mxGeometry x="80" y="200" width="120" height="60" as="geometry" />
        </mxCell>
        <mxCell id="_YRfoyg79Vk_gOYzoRa0-7" value="Vectorize data to work with neural networks&amp;nbsp;" style="rounded=0;whiteSpace=wrap;html=1;labelBackgroundColor=none;fillColor=#F45B69;strokeColor=#028090;fontColor=#E4FDE1;" vertex="1" parent="1">
          <mxGeometry x="520" y="290" width="120" height="60" as="geometry" />
        </mxCell>
        <mxCell id="_YRfoyg79Vk_gOYzoRa0-30" value="" style="edgeStyle=orthogonalEdgeStyle;rounded=0;orthogonalLoop=1;jettySize=auto;html=1;labelBackgroundColor=none;strokeColor=#028090;fontColor=default;" edge="1" parent="1" source="_YRfoyg79Vk_gOYzoRa0-15" target="_YRfoyg79Vk_gOYzoRa0-22">
          <mxGeometry relative="1" as="geometry" />
        </mxCell>
        <mxCell id="_YRfoyg79Vk_gOYzoRa0-15" value="Data validation&lt;div&gt;(checking row and colums are matching in merged data)&lt;/div&gt;" style="rounded=0;whiteSpace=wrap;html=1;labelBackgroundColor=none;fillColor=#F45B69;strokeColor=#028090;fontColor=#E4FDE1;" vertex="1" parent="1">
          <mxGeometry x="240" y="290" width="120" height="60" as="geometry" />
        </mxCell>
        <mxCell id="_YRfoyg79Vk_gOYzoRa0-31" value="" style="edgeStyle=orthogonalEdgeStyle;rounded=0;orthogonalLoop=1;jettySize=auto;html=1;labelBackgroundColor=none;strokeColor=#028090;fontColor=default;" edge="1" parent="1" source="_YRfoyg79Vk_gOYzoRa0-22" target="_YRfoyg79Vk_gOYzoRa0-7">
          <mxGeometry relative="1" as="geometry" />
        </mxCell>
        <mxCell id="_YRfoyg79Vk_gOYzoRa0-22" value="EDA" style="rounded=0;whiteSpace=wrap;html=1;labelBackgroundColor=none;fillColor=#F45B69;strokeColor=#028090;fontColor=#E4FDE1;" vertex="1" parent="1">
          <mxGeometry x="380" y="290" width="120" height="60" as="geometry" />
        </mxCell>
        <mxCell id="_YRfoyg79Vk_gOYzoRa0-40" style="edgeStyle=orthogonalEdgeStyle;rounded=0;orthogonalLoop=1;jettySize=auto;html=1;exitX=0.5;exitY=1;exitDx=0;exitDy=0;labelBackgroundColor=none;strokeColor=#028090;fontColor=default;" edge="1" parent="1">
          <mxGeometry relative="1" as="geometry">
            <mxPoint x="395" y="380" as="sourcePoint" />
            <mxPoint x="395" y="380" as="targetPoint" />
          </mxGeometry>
        </mxCell>
      </root>
    </mxGraphModel>
  </diagram>
</mxfile>
